<svg width="193" height="56" viewBox="0 0 193 56" fill="none" xmlns="http://www.w3.org/2000/svg">
<g clip-path="url(#clip0_1_2)">
<path d="M81.4055 7.72001V9.03456C81.4055 13.3128 77.5335 15.679 72.6577 15.679C67.7819 15.679 63.6948 13.4562 63.6948 8.84336C63.6948 4.23047 67.4234 1.81647 72.5382 1.81647C77.653 1.81647 80.4972 3.39393 81.023 6.50106H77.2706C76.6731 5.32991 75 4.78019 72.6577 4.78019C70.3154 4.78019 67.3995 6.19035 67.3995 8.84336C67.3995 11.4964 69.8613 12.7631 72.6338 12.7631C75.4063 12.7631 77.2467 11.9744 77.6052 10.2296H72.3948V7.69611H81.4294L81.4055 7.72001Z" fill="black"/>
<path d="M98.2079 15.1293V15.4639H94.5749C94.2642 14.8664 94.0969 14.2211 94.1208 13.5519V12.1178C94.1208 11.1857 93.595 10.7076 92.4477 10.7076H86.8071V15.4639H83.2936V2.00769H93.1169C96.8455 2.00769 98.1122 3.87197 98.1122 5.95135C98.1122 8.03074 96.965 8.79557 95.6026 9.13018V9.20189C97.204 9.36919 97.8015 10.3491 97.8015 11.5681V13.3129C97.7776 13.9343 97.8971 14.5557 98.1601 15.1054H98.2079V15.1293ZM94.4554 6.40547C94.4554 5.28212 93.6667 4.80411 92.5433 4.80411H86.831V7.93513H92.5433C93.7145 7.93513 94.4554 7.45711 94.4554 6.40547Z" fill="black"/>
<path d="M112.286 12.6675H104.613L103.227 15.4878H99.379L106.263 2.03159H110.636L117.52 15.5117H113.696L112.286 12.6914V12.6675ZM110.971 10.0384L108.485 5.06701H108.414L105.952 10.0384H110.971Z" fill="black"/>
<path d="M122.443 4.87581V7.81563H131.454V10.6837H122.443V15.4878H118.882V2.00769H132.601V4.87581H122.443Z" fill="black"/>
<path d="M134.585 15.4639V2.00769H138.218V15.4878H134.585V15.4639Z" fill="black"/>
<path d="M147.922 4.63678C145.962 4.63678 144.504 4.9953 144.504 5.85573C144.504 6.71617 145.317 7.02688 148.711 7.24199C153.897 7.5766 155.857 8.98676 155.857 11.592C155.857 14.1972 151.889 15.6551 148.233 15.6551C144.576 15.6551 140.608 14.3167 140.274 10.8749H143.978C144.313 12.4046 146.488 12.787 148.448 12.787C150.408 12.787 152.129 12.5002 152.129 11.5681C152.129 10.6359 151.483 10.3491 148.113 10.134C143.524 9.8233 140.776 8.77165 140.776 6.11864C140.776 3.46563 144.456 1.81647 147.97 1.81647C151.483 1.81647 155.499 2.93981 155.857 6.50106H152.2C151.818 5.0909 150.073 4.66068 147.922 4.66068V4.63678Z" fill="black"/>
<path d="M165.752 15.6551C160.494 15.6551 157.1 13.0499 157.1 8.77166C157.1 4.49338 160.613 1.79257 165.872 1.79257C171.13 1.79257 173.472 3.32224 173.974 6.85958H170.245C169.791 5.59283 168.142 4.70849 165.967 4.70849C162.645 4.70849 160.828 6.30986 160.828 8.72386C160.828 11.1379 162.764 12.7153 165.895 12.7153C169.027 12.7153 169.839 12.0222 170.245 10.7793H173.974C173.448 14.245 169.839 15.6551 165.752 15.6551Z" fill="black"/>
<path d="M192.163 2.00769V15.4878H188.577V10.0862H179.639V15.4878H176.029V2.00769H179.639V7.0986H188.577V2.00769H192.163Z" fill="black"/>
<path d="M78.0832 31.7883V34.7042H64.1968V21.2241H67.8536V31.7644H78.0832V31.7883Z" fill="black"/>
<path d="M85.7077 28.8007V34.7042H82.0747V28.8007L75.2151 21.248H79.7324L83.8195 25.9326H83.8912L88.0261 21.248H92.5434L85.6838 28.8007H85.7077Z" fill="black"/>
<path d="M100.502 34.9193C95.2442 34.9193 91.8502 32.3141 91.8502 28.0358C91.8502 23.7576 95.3637 21.0807 100.622 21.0807C105.88 21.0807 108.222 22.6103 108.724 26.1477H104.996C104.542 24.8809 102.892 23.9966 100.717 23.9966C97.3952 23.9966 95.5788 25.5979 95.5788 28.0119C95.5788 30.4259 97.5147 32.0034 100.646 32.0034C103.777 32.0034 104.589 31.3103 104.996 30.0674H108.724C108.198 33.5331 104.589 34.9432 100.502 34.9432V34.9193Z" fill="black"/>
<path d="M114.365 24.0444V26.5062H123.184V29.3265H114.365V31.9078H124.284V34.7281H110.923V21.248H124.284V24.0683H114.365V24.0444Z" fill="black"/>
<path d="M130.02 21.248V27.9164C130.02 30.3065 131.024 32.0034 134.203 32.0034C137.382 32.0034 138.385 30.3065 138.385 27.9164V21.248H142.066V28.1315C142.066 32.9356 138.887 34.9193 134.227 34.9193C129.566 34.9193 126.387 32.9356 126.387 28.1315V21.248H130.044H130.02Z" fill="black"/>
<path d="M163.936 34.7042H160.542V25.5979H160.47L156.239 34.7042H152.296L148.065 25.5979H147.994V34.7042H144.6V21.2241H149.356L154.232 31.621H154.303L159.203 21.2241H163.936V34.6803V34.7042Z" fill="black"/>
<path d="M67.8536 40.4883V47.1566C67.8536 49.5467 68.8575 51.2676 72.0363 51.2676C75.2151 51.2676 76.219 49.5706 76.219 47.1566V40.4883H79.8758V47.3717C79.8758 52.1758 76.697 54.1596 72.0363 54.1596C67.3756 54.1596 64.1968 52.1758 64.1968 47.3717V40.4883H67.8536Z" fill="black"/>
<path d="M96.989 43.4042H91.0137V53.9445H87.3808V43.4042H81.4055V40.4644H97.0129V43.4042H96.989Z" fill="black"/>
<path d="M113.409 53.6099V53.9684H109.776C109.465 53.3709 109.298 52.7256 109.346 52.0563V50.6223C109.346 49.6901 108.82 49.2121 107.673 49.2121H102.032V53.9684H98.5186V40.4883H108.366C112.07 40.4883 113.361 42.3525 113.361 44.4319C113.361 46.5113 112.214 47.2761 110.852 47.6107V47.6824C112.453 47.8498 113.05 48.8297 113.05 50.0486V51.7934C113.027 52.4148 113.146 53.0363 113.409 53.6099ZM109.656 44.886C109.656 43.7627 108.868 43.2847 107.72 43.2847H102.008V46.4157H107.72C108.892 46.4157 109.656 45.9377 109.656 44.8621V44.886Z" fill="black"/>
<path d="M119.145 43.3086V45.7704H127.965V48.5907H119.145V51.172H129.064V53.9923H115.703V40.5121H129.064V43.3325H119.145V43.3086Z" fill="black"/>
<path d="M139.055 54.1596C133.796 54.1596 130.402 51.5544 130.402 47.2761C130.402 42.9979 133.916 40.321 139.174 40.321C144.432 40.321 146.775 41.8506 147.277 45.388H143.548C143.094 44.1212 141.445 43.2369 139.27 43.2369C135.947 43.2369 134.131 44.8382 134.131 47.2522C134.131 49.6662 136.067 51.2437 139.198 51.2437C142.329 51.2437 143.142 50.5506 143.548 49.3077H147.277C146.751 52.7734 143.142 54.1835 139.055 54.1835V54.1596Z" fill="black"/>
<path d="M165.441 40.4883V53.9684H161.832V48.5907H152.893V53.9684H149.284V40.4883H152.893V45.5792H161.832V40.4883H165.441Z" fill="black"/>
<path d="M182.554 43.4042H176.579V53.9445H172.922V43.4042H166.947V40.4644H182.554V43.4042Z" fill="black"/>
<path d="M41.8016 3.94366C47.5378 3.94366 52.1985 8.60435 52.1985 14.3406V41.6594C52.1985 47.3956 47.5378 52.0563 41.8016 52.0563H14.4827C8.7465 52.0563 4.08581 47.3956 4.08581 41.6594V14.3406C4.08581 8.60435 8.7465 3.94366 14.4827 3.94366H41.8016ZM41.8016 0H14.4827C6.57152 0 0.142151 6.42936 0.142151 14.3406V41.6594C0.142151 49.5706 6.57152 56 14.4827 56H41.8016C49.7128 56 56.1422 49.5706 56.1422 41.6594V14.3406C56.1422 6.42936 49.7128 0 41.8016 0Z" fill="black"/>
</g>
<defs>
<clipPath id="clip0_1_2">
<rect width="192.02" height="56" fill="white" transform="translate(0.142151)"/>
</clipPath>
</defs>
</svg>
