<svg width="193" height="56" viewBox="0 0 193 56" fill="none" xmlns="http://www.w3.org/2000/svg">
<g clip-path="url(#clip0_1_25)">
<path d="M81.2634 7.72001V9.03456C81.2634 13.3128 77.3914 15.679 72.5156 15.679C67.6398 15.679 63.5527 13.4562 63.5527 8.84336C63.5527 4.23047 67.2813 1.81647 72.3961 1.81647C77.5109 1.81647 80.3551 3.39393 80.8809 6.50106H77.1285C76.531 5.32991 74.8579 4.78019 72.5156 4.78019C70.1733 4.78019 67.2574 6.19035 67.2574 8.84336C67.2574 11.4964 69.7192 12.7631 72.4917 12.7631C75.2642 12.7631 77.1046 11.9744 77.4631 10.2296H72.2527V7.69611H81.2873L81.2634 7.72001Z" fill="white"/>
<path d="M98.0657 15.1293V15.4639H94.4328C94.122 14.8664 93.9547 14.2211 93.9786 13.5519V12.1178C93.9786 11.1857 93.4528 10.7076 92.3056 10.7076H86.6649V15.4639H83.1515V2.00769H92.9748C96.7033 2.00769 97.9701 3.87197 97.9701 5.95135C97.9701 8.03074 96.8229 8.79557 95.4605 9.13018V9.20189C97.0619 9.36919 97.6594 10.3491 97.6594 11.5681V13.3129C97.6355 13.9343 97.755 14.5557 98.0179 15.1054H98.0657V15.1293ZM94.3133 6.40547C94.3133 5.28212 93.5245 4.80411 92.4012 4.80411H86.6888V7.93513H92.4012C93.5723 7.93513 94.3133 7.45711 94.3133 6.40547Z" fill="white"/>
<path d="M112.143 12.6675H104.471L103.085 15.4878H99.2369L106.12 2.03159H110.494L117.378 15.5117H113.554L112.143 12.6914V12.6675ZM110.829 10.0384L108.343 5.06701H108.271L105.81 10.0384H110.829Z" fill="white"/>
<path d="M122.301 4.87581V7.81563H131.312V10.6837H122.301V15.4878H118.74V2.00769H132.459V4.87581H122.301Z" fill="white"/>
<path d="M134.443 15.4639V2.00769H138.076V15.4878H134.443V15.4639Z" fill="white"/>
<path d="M147.78 4.63678C145.82 4.63678 144.362 4.9953 144.362 5.85573C144.362 6.71617 145.175 7.02688 148.569 7.24199C153.755 7.5766 155.715 8.98676 155.715 11.592C155.715 14.1972 151.747 15.6551 148.09 15.6551C144.434 15.6551 140.466 14.3167 140.131 10.8749H143.836C144.171 12.4046 146.346 12.787 148.306 12.787C150.265 12.787 151.986 12.5002 151.986 11.5681C151.986 10.6359 151.341 10.3491 147.971 10.134C143.382 9.8233 140.633 8.77165 140.633 6.11864C140.633 3.46563 144.314 1.81647 147.828 1.81647C151.341 1.81647 155.356 2.93981 155.715 6.50106H152.058C151.676 5.0909 149.931 4.66068 147.78 4.66068V4.63678Z" fill="white"/>
<path d="M165.61 15.6551C160.352 15.6551 156.958 13.0499 156.958 8.77166C156.958 4.49338 160.471 1.79257 165.729 1.79257C170.988 1.79257 173.33 3.32223 173.832 6.85958H170.103C169.649 5.59283 168 4.70849 165.825 4.70849C162.503 4.70849 160.686 6.30986 160.686 8.72386C160.686 11.1379 162.622 12.7153 165.753 12.7153C168.884 12.7153 169.697 12.0222 170.103 10.7793H173.832C173.306 14.245 169.697 15.6551 165.61 15.6551Z" fill="white"/>
<path d="M192.02 2.00769V15.4878H188.435V10.0862H179.496V15.4878H175.887V2.00769H179.496V7.0986H188.435V2.00769H192.02Z" fill="white"/>
<path d="M77.9411 31.7883V34.7042H64.0546V21.2241H67.7115V31.7644H77.9411V31.7883Z" fill="white"/>
<path d="M85.5655 28.8007V34.7042H81.9326V28.8007L75.073 21.248H79.5903L83.6774 25.9326H83.7491L87.8839 21.248H92.4012L85.5416 28.8007H85.5655Z" fill="white"/>
<path d="M100.36 34.9193C95.102 34.9193 91.7081 32.3141 91.7081 28.0358C91.7081 23.7576 95.2215 21.0807 100.48 21.0807C105.738 21.0807 108.08 22.6103 108.582 26.1477H104.854C104.399 24.8809 102.75 23.9966 100.575 23.9966C97.2531 23.9966 95.4366 25.5979 95.4366 28.0119C95.4366 30.4259 97.3726 32.0034 100.504 32.0034C103.635 32.0034 104.447 31.3103 104.854 30.0674H108.582C108.056 33.5331 104.447 34.9432 100.36 34.9432V34.9193Z" fill="white"/>
<path d="M114.223 24.0444V26.5062H123.042V29.3265H114.223V31.9078H124.142V34.7281H110.781V21.248H124.142V24.0683H114.223V24.0444Z" fill="white"/>
<path d="M129.878 21.248V27.9164C129.878 30.3065 130.882 32.0034 134.061 32.0034C137.239 32.0034 138.243 30.3065 138.243 27.9164V21.248H141.924V28.1315C141.924 32.9356 138.745 34.9193 134.085 34.9193C129.424 34.9193 126.245 32.9356 126.245 28.1315V21.248H129.902H129.878Z" fill="white"/>
<path d="M163.793 34.7042H160.399V25.5979H160.328L156.097 34.7042H152.154L147.923 25.5979H147.851V34.7042H144.458V21.2241H149.214L154.09 31.621H154.161L159.061 21.2241H163.793V34.6803V34.7042Z" fill="white"/>
<path d="M67.7115 40.4883V47.1566C67.7115 49.5467 68.7153 51.2676 71.8941 51.2676C75.073 51.2676 76.0768 49.5706 76.0768 47.1566V40.4883H79.7337V47.3717C79.7337 52.1758 76.5548 54.1596 71.8941 54.1596C67.2335 54.1596 64.0546 52.1758 64.0546 47.3717V40.4883H67.7115Z" fill="white"/>
<path d="M96.8467 43.4042H90.8715V53.9445H87.2386V43.4042H81.2633V40.4644H96.8706V43.4042H96.8467Z" fill="white"/>
<path d="M113.267 53.6099V53.9684H109.634C109.323 53.3709 109.156 52.7256 109.204 52.0563V50.6223C109.204 49.6901 108.678 49.2121 107.531 49.2121H101.89V53.9684H98.3765V40.4883H108.224C111.928 40.4883 113.219 42.3525 113.219 44.4319C113.219 46.5113 112.072 47.2761 110.709 47.6107V47.6824C112.311 47.8498 112.908 48.8297 112.908 50.0486V51.7934C112.884 52.4148 113.004 53.0363 113.267 53.6099ZM109.514 44.886C109.514 43.7627 108.726 43.2847 107.578 43.2847H101.866V46.4157H107.578C108.749 46.4157 109.514 45.9377 109.514 44.8621V44.886Z" fill="white"/>
<path d="M119.003 43.3086V45.7704H127.822V48.5907H119.003V51.172H128.922V53.9923H115.561V40.5122H128.922V43.3325H119.003V43.3086Z" fill="white"/>
<path d="M138.913 54.1596C133.654 54.1596 130.26 51.5544 130.26 47.2761C130.26 42.9979 133.774 40.321 139.032 40.321C144.29 40.321 146.633 41.8506 147.134 45.388H143.406C142.952 44.1212 141.303 43.2369 139.128 43.2369C135.805 43.2369 133.989 44.8382 133.989 47.2522C133.989 49.6662 135.925 51.2437 139.056 51.2437C142.187 51.2437 143 50.5506 143.406 49.3077H147.134C146.609 52.7734 143 54.1835 138.913 54.1835V54.1596Z" fill="white"/>
<path d="M165.299 40.4883V53.9684H161.69V48.5907H152.751V53.9684H149.142V40.4883H152.751V45.5792H161.69V40.4883H165.299Z" fill="white"/>
<path d="M182.412 43.4042H176.437V53.9445H172.78V43.4042H166.805V40.4644H182.412V43.4042Z" fill="white"/>
<path d="M41.6594 3.94366C47.3956 3.94366 52.0563 8.60435 52.0563 14.3406V41.6594C52.0563 47.3956 47.3956 52.0563 41.6594 52.0563H14.3406C8.60435 52.0563 3.94366 47.3956 3.94366 41.6594V14.3406C3.94366 8.60435 8.60435 3.94366 14.3406 3.94366H41.6594ZM41.6594 0H14.3406C6.42936 0 0 6.42936 0 14.3406V41.6594C0 49.5706 6.42936 56 14.3406 56H41.6594C49.5706 56 56 49.5706 56 41.6594V14.3406C56 6.42936 49.5706 0 41.6594 0Z" fill="white"/>
</g>
<defs>
<clipPath id="clip0_1_25">
<rect width="192.02" height="56" fill="white"/>
</clipPath>
</defs>
</svg>
